<svg width="31" height="30" viewBox="0 0 31 30" fill="none" xmlns="http://www.w3.org/2000/svg">
<path d="M30.5 11.1111V12.2222C30.4977 14.1022 29.8152 15.9179 28.5786 17.334C27.342 18.75 25.6348 19.6709 23.7722 19.9264C24.5325 20.8993 24.9452 22.0986 24.9444 23.3333V28.8889C24.9444 29.1836 24.8274 29.4662 24.619 29.6746C24.4106 29.8829 24.128 30 23.8333 30H14.9444C14.6498 30 14.3671 29.8829 14.1588 29.6746C13.9504 29.4662 13.8333 29.1836 13.8333 28.8889V26.6667H10.5C9.02658 26.6667 7.6135 26.0814 6.57163 25.0395C5.52976 23.9976 4.94444 22.5845 4.94444 21.1111C4.94444 20.2271 4.59326 19.3792 3.96813 18.7541C3.34301 18.129 2.49517 17.7778 1.61111 17.7778C1.31643 17.7778 1.03381 17.6607 0.825437 17.4523C0.617063 17.244 0.5 16.9614 0.5 16.6667C0.5 16.372 0.617063 16.0894 0.825437 15.881C1.03381 15.6726 1.31643 15.5556 1.61111 15.5556C2.34068 15.5556 3.0631 15.6993 3.73713 15.9785C4.41116 16.2576 5.0236 16.6669 5.53948 17.1827C6.05536 17.6986 6.46458 18.3111 6.74378 18.9851C7.02297 19.6591 7.16667 20.3816 7.16667 21.1111C7.16667 21.9952 7.51786 22.843 8.14298 23.4681C8.7681 24.0933 9.61595 24.4444 10.5 24.4444H13.8333V23.3333C13.8326 22.0986 14.2453 20.8993 15.0056 19.9264C13.143 19.6709 11.4358 18.75 10.1992 17.334C8.9626 15.9179 8.28012 14.1022 8.27778 12.2222V11.1111C8.29161 9.73025 8.65934 8.37601 9.34583 7.17779C9.00621 6.08223 8.89727 4.92818 9.02587 3.78842C9.15448 2.64866 9.51784 1.54791 10.0931 0.555573C10.1906 0.386627 10.3309 0.246339 10.4999 0.148816C10.6688 0.051294 10.8605 -2.56296e-05 11.0556 1.81824e-05C12.3497 -0.00269074 13.6266 0.297329 14.7842 0.876107C15.9417 1.45489 16.9479 2.29638 17.7222 3.33335H21.0556C21.8299 2.29638 22.836 1.45489 23.9936 0.876107C25.1512 0.297329 26.428 -0.00269074 27.7222 1.81824e-05C27.9173 -2.56296e-05 28.109 0.051294 28.2779 0.148816C28.4469 0.246339 28.5872 0.386627 28.6847 0.555573C29.26 1.54789 29.6233 2.6487 29.7517 3.78851C29.8801 4.92833 29.7707 6.08237 29.4306 7.17779C30.1183 8.37554 30.4866 9.73001 30.5 11.1111Z" fill="white"/>
</svg>
